<?xml version="1.0" encoding="UTF-8"?>
<svg id="uuid-5857b4ab-9ca0-4f49-baba-0258b41ee601" data-name="Capa 1" xmlns="http://www.w3.org/2000/svg" viewBox="0 0 370.03 371.35">
  <path d="M157.78,0c4.39,1.53,10.13.82,14.86.83h28.89c14.27,0,28.68.38,42.93,0,.55-.01,1.1.02,1.65,0,.27,0,.55.01.83,0,3.43-.14,6.84-.69,9.91-.83,4.4,1.55,10.12.8,14.86.83,3.01.02,6.07-.11,9.08,0,4.12.15,8.27.53,12.38.83s3.54,1.66,3.78,1.67c2.3.07,2.58-.58,6.13-.02,4.68.74,10.41,1.81,14.86,3.31,6.8,2.29,19.34,9.86,24.77,14.88,1.18,1.09,2.93,2.9,4.13,4.13,1.87,1.92,6.57,7.57,8.26,9.92.23.32.64.55.83.83,1.74,2.57,5.35,9.46,6.6,12.4,2.74,6.43,5.72,17.89,6.6,24.8.43,3.35.64,8.79.83,12.4.21,4.1-.09,8.29,0,12.4.09,4.12-.05,8.28,0,12.4.06,4.4-.03,8.83,0,13.23.03,3.85,0,7.72,0,11.57v47.95c-.03.55.03,1.1,0,1.65-.21,4.1.08,8.29,0,12.4-.01.55,0,1.1,0,1.65v1.65c-.03,2.2.02,4.41,0,6.61v2.48c-.04,4.12.02,8.28,0,12.4v4.96c-.01,2.48.02,4.97,0,7.44-.03,4.12.03,8.28,0,12.4s.05,8.28,0,12.4.08,8.28,0,12.4c-.06,3.29.12,6.63,0,9.92-.01.28.01.55,0,.83-.02.55.03,1.1,0,1.65-.19,3.72-.39,8.85-.83,12.4-.37,3.06-1.03,7.8-1.65,10.75-.1.48-.59,1.5-.83,2.48-.71,2.92-2.29,8.98-3.3,11.57s-5.01,9.86-6.6,12.4c-.61.97-1.71,2.24-2.48,3.31-1.73,2.4-5.43,7.03-7.43,9.09-1.18,1.22-2.95,3.09-4.13,4.13-.2.18-1.35.19-2.07.79-2.91,2.43-5.83,4.96-8.67,7.48-.27.03-.57-.05-.83,0-3.26.67-9.47,5.24-13.21,6.61-3.06,1.12-9.09,2.62-12.38,3.31-2.81.59-5.64.89-8.53.99l-.55.67c-.55,0-1.1.01-1.65,0-7.12-.14-14.27,1.53-21.46.83-1.63-.14-3.32.07-4.95,0-4.1-.18-8.28.07-12.38,0h-1.65c-1.65-.02-3.3.02-4.95,0h-5.79c-4.12-.03-8.27-.03-12.38,0-1.65.01-3.3-.01-4.95,0-1.92.02-3.85-.02-5.78,0h-1.65c-4.11.05-8.27-.13-12.38,0-.82.03-1.65-.04-2.48,0-.55.02-1.1-.03-1.65,0-.81.05-1.68-.1-2.48,0h-55.31c-4.12,0-8.27.02-12.38,0-3.29-.01-6.61.02-9.91,0h-2.48c-4.12-.03-8.27.04-12.38,0h-3.31c-3.02-.04-6.06.07-9.08,0-7.46-.16-14.05-.69-21.46-1.25-1.49-.11-2.85-1.5-2.48,1.25h-1.66c-1.69-3.61-6.15-2.18-9.91-3.31s-9.33-3.4-13.21-4.96c-2.55-1.02-4.81-3.6-8.26-4.13-.86-1.71-2.75-2.23-4.13-3.31-8.8-6.88-15.7-12.32-21.46-22.32-1.21-2.09-1.44-6.05-4.13-7.44-.29-2.42-1.34-2.97-1.65-4.13-1.1-4.14-2.35-8.22-3.3-12.4-.88-3.87-2-8.52-2.48-12.4-.43-3.55-.64-8.68-.83-12.4-.03-.55.02-1.1,0-1.65-.01-.28.01-.55,0-.83-.1-2.74.06-5.52,0-8.27-.1-4.67.05-9.38,0-14.05-.05-4.12.03-8.28,0-12.4s.02-8.28,0-12.4c-.01-2.47.01-4.97,0-7.44v-4.96c-.02-4.12.01-8.28,0-12.4v-12.39c-.01-4.12,0-8.28,0-12.4v-9.92c.01-4.95-.02-9.93,0-14.88.01-2.75-.01-5.52,0-8.27v-4.13c.02-4.12-.02-8.28,0-12.4v-3.3c.02-3.02-.03-6.07,0-9.09.04-4.12-.05-8.28,0-12.4s-.09-8.28,0-12.4-.21-8.3,0-12.4c.18-3.56.4-9.04.83-12.4.4-3.16,1.68-9.2,2.48-12.4.42-1.69,2.97-11.84,3.3-12.4s1.43,1.64,1.65-3.31c2.85-2.03,4.59-5.49,6.6-8.27,5.42-7.46,11.23-14.87,18.99-20.67,2.26-1.69,5.28-2.44,6.6-4.96,2.54-.15,3.53-.85,5.78-1.65,3.9-1.39,7.76-3.76,11.56-4.96s8.29-1.87,12.38-2.48c3.6-.53,9.51-1.47,12.38-1.65,4.08-.25,8.29.1,12.38,0,2.47-.06,4.96.04,7.43,0,14.28-.21,28.65.38,42.93,0,.55-.01,1.1.02,1.65,0,.27,0,.55.01.83,0,3.43-.14,6.84-.69,9.91-.83l.02-.02ZM82.66,117.39h-18.16v124h54.49v-17.36h-35.09c-.09,0-1.24-1.15-1.24-1.24v-105.4ZM128.41,125.16c-8.61,19.43,23.48,24.27,21.06,3.47-1-8.59-12.34-12.04-18.44-7.02-.17.14-2.53,3.35-2.62,3.55ZM312.16,206.67v-11.99c0-13.15-12.35-28.56-24.93-32.08-18.12-5.07-34.15,1.59-43.19,17.6-19.86,35.16,8.56,75.8,48.88,60.52,7.45-2.82,15.27-9.75,18.42-17.12l-14.84-8.66c-9.74,20.66-39.62,15.3-40.47-8.27h56.14,0ZM147.05,163.69h-17.34v77.71h17.34v-77.71ZM175.95,163.69h-19.81c3.14,6.03,4.09,13.2,8.42,18.44,10.71,19.89,18.81,42.25,29.98,61.77.51.9-.09,2.01,1.63,1.64l39.22-81.85h-19.81c-.41,2.69-3.4,4.53-4.46,6.69-3.23,6.57-5.39,15.2-8.34,22.23-1.62,3.87-3.72,8.86-5.78,12.43-.51.89.09,2.01-1.63,1.64l-19.41-42.99h0Z" fill="#2b2b2b"/>
  <path d="M312.16,206.67h-56.14c.85,23.57,30.73,28.93,40.47,8.27l14.84,8.66c-3.15,7.37-10.97,14.3-18.42,17.12-40.32,15.28-68.74-25.35-48.88-60.52,9.04-16.01,25.07-22.66,43.19-17.6,12.58,3.52,24.93,18.93,24.93,32.08v11.99h0ZM257.68,191.79h36.32c-.33-5.51-5.05-12.46-10.5-13.87-1.57-.41-3.25.11-4.62-.2-.69-.16-.28-1.68-1.78-1.74-.46-.02-8.09,1.71-8.9,1.96-4.18,1.26-10.46,9.16-10.52,13.85h0Z" fill="#fdfdfd"/>
  <path d="M82.66,117.39v105.4c0,.09,1.15,1.24,1.24,1.24h35.09v17.36h-54.49v-124h18.16Z" fill="#fdfdfd"/>
  <path d="M175.95,163.69l19.41,42.99c1.72.38,1.12-.75,1.63-1.64,2.06-3.57,4.16-8.56,5.78-12.43,2.95-7.04,5.11-15.67,8.34-22.23,1.07-2.16,4.06-4.01,4.46-6.69h19.81l-39.22,81.85c-1.72.37-1.12-.74-1.63-1.64-11.18-19.53-19.27-41.88-29.98-61.77-4.33-5.24-5.28-12.41-8.42-18.44h19.82Z" fill="#fdfdfd"/>
  <rect x="129.72" y="163.69" width="17.34" height="77.71" fill="#fdfdfd"/>
  <path d="M128.41,125.16c.09-.2,2.45-3.41,2.62-3.55,6.1-5.01,17.44-1.56,18.44,7.02,2.43,20.8-29.66,15.96-21.06-3.47Z" fill="#fdfdfd"/>
  <path d="M257.68,191.79c.06-4.69,6.34-12.59,10.52-13.85.81-.24,8.44-1.98,8.9-1.96,1.5.06,1.08,1.58,1.78,1.74,1.37.31,3.05-.21,4.62.2,5.45,1.42,10.17,8.36,10.5,13.87h-36.32Z" fill="#2b2b2b"/>
</svg>