<?xml version="1.0" encoding="UTF-8"?>
<svg id="uuid-8fc0f8bf-b918-4c8d-a5dc-2e66ca2792dc" data-name="Capa 1" xmlns="http://www.w3.org/2000/svg" viewBox="0 0 359.36 352.67">
  <path d="M359.36,57.25v239.57c-2.03,5.13-2.85,10.54-5.01,15.66-10.61,25.1-33.24,37.68-59.88,39.01-75.16,3.75-153.4-2.9-228.87,0-26.72-.08-51.48-15.42-61.21-40.48-1.89-4.87-2.59-10.02-4.38-14.89V56.55C3.67,39.65,11.24,24.68,25.33,14.23,37.39,5.28,49.93,1.93,64.89,1.18c75.16-3.75,153.4,2.9,228.87,0,26.95.06,51.25,15.41,61.21,40.48l4.38,15.6ZM117.91,198.75c32.49,1.88,68.7-2.83,78.41-39.08,9.22-34.42-10.67-62.56-45.18-67.99-9.84-1.55-17.01-.82-26.53-.78-13.02.05-26.02-.36-38.98.67v156.91h31.23c.07,0,1.05-.98,1.05-1.05v-48.69ZM246.71,128.7h-28.43l1.75,119.79h32.64v-78.11c0-.65,5.73-4.58,6.79-5.13,5.19-2.72,14.46-5.02,20.32-5.64,2.2-.23,12.19.76,12.19-1.84v-29.42c0-2.6-6.61-1.95-8.76-1.74-12.47,1.19-24.19,9.6-32.64,18.2.21-3.2-.43-15.17-3.87-16.11Z" fill="#01015b"/>
  <path d="M117.91,198.75v48.69c0,.07-.98,1.05-1.05,1.05h-31.23V91.57c12.96-1.04,25.96-.62,38.98-.67,9.52-.04,16.69-.77,26.53.78,34.52,5.43,54.4,33.57,45.18,67.99-9.71,36.25-45.92,40.96-78.41,39.08ZM117.91,120.3v49.39c0,.07.98,1.05,1.05,1.05h18.25c12.11,0,26.77-8.63,28.35-21.44,3.65-29.65-25.68-31.71-47.65-28.99Z" fill="#9898fd"/>
  <path d="M246.71,128.7c3.43.95,4.08,12.91,3.87,16.11,8.46-8.61,20.17-17.01,32.64-18.2,2.15-.21,8.76-.86,8.76,1.74v29.42c0,2.6-9.99,1.61-12.19,1.84-5.87.62-15.13,2.92-20.32,5.64-1.06.56-6.79,4.48-6.79,5.13v78.11h-32.64l-1.75-119.79h28.43Z" fill="#9898fd"/>
  <path d="M117.91,120.3c21.97-2.71,51.3-.66,47.65,28.99-1.58,12.81-16.24,21.44-28.35,21.44h-18.25c-.07,0-1.05-.98-1.05-1.05v-49.39Z" fill="#01015b"/>
</svg>