<?xml version="1.0" encoding="UTF-8"?>
<svg id="uuid-c23bc944-ad81-4932-bdad-dc517a53619b" data-name="Capa 1" xmlns="http://www.w3.org/2000/svg" viewBox="0 0 370.01 370.08">
  <path d="M316,54.29c99.01,99.24,55.5,268.84-78.45,308.22-92.58,27.22-190.34-21.11-224.98-110.5C-17.27,175.01,7.34,88.42,72.27,38.32c73.59-56.79,178.28-49.62,243.72,15.97h0ZM138.74,108.1h-30.15s-.53.49-.53.53v153.16h30.68V108.1h0ZM169.77,138.77h91.87s.53-.49.53-.53v-29.61s-.49-.53-.53-.53h-91.87v30.67h0ZM170.3,169.44c-.12.18-.53.43-.53.53v29.96s.49.53.53.53h91.34s.53-.49.53-.53v-29.96s-.49-.53-.53-.53h-91.34ZM262.17,261.79v-30.14s-.49-.53-.53-.53h-91.34s-.53.49-.53.53v29.96l92.39.18h.01Z" fill="#92003b"/>
  <path d="M138.74,108.1v153.69h-30.68V108.63s.49-.53.53-.53h30.15,0Z" fill="#fffefe"/>
  <path d="M170.3,169.44h91.34s.53.49.53.53v29.96s-.49.53-.53.53h-91.34s-.53-.49-.53-.53v-29.96c0-.1.41-.35.53-.53h0Z" fill="#fffefe"/>
  <path d="M262.17,261.79l-92.39-.18v-29.96s.49-.53.53-.53h91.34s.53.49.53.53v30.14h-.01Z" fill="#fffefe"/>
  <path d="M169.77,138.77v-30.67h91.87s.53.49.53.53v29.61s-.49.53-.53.53h-91.87Z" fill="#fffefe"/>
</svg>