<?xml version="1.0" encoding="UTF-8"?>
<svg id="uuid-c31ac8f8-ddbb-4f50-a0cb-27a766d0b609" data-name="Capa 1" xmlns="http://www.w3.org/2000/svg" viewBox="0 0 349.57 371.28">
  <path d="M323.9,58.24c-.13,21.15,0,42.69.02,63.92.06,46.18-.39,92.35-.52,138.52H56.53c-8.94,4.87-17.31,11.08-25.92,16.29-.26.16-.98.07-1.32.38L0,294.74V34.29L57.05,0h248.82c9.76.85,17.27,8.15,18.05,17.98.97,12.35.06,27.61-.02,40.26ZM160.96,58.73h-45.42v144.17h31.11v-95.79l26.41,95.79,33.31-.03,24.22-91.81v91.84h34.07V58.73h-43.94l-30.85,115.05-28.89-115.05h-.02Z" fill="#39a4cb"/>
  <path d="M323.9,58.24h25.67v313.04H49.12c-8.8,0-17.71-8.37-18.38-17.17l-.14-77.13c8.61-5.22,16.98-11.42,25.92-16.29h266.87c.13-46.17.58-92.34.52-138.52-.03-21.22-.15-42.77-.02-63.92h.01ZM170.84,341.16l-16.34-54.02c-.36-.76-.95-.73-1.66-.81-4.9-.56-10.82.5-15.85,0l-16.03,54.84h13.33l3.03-11.78,16.25.15,3.43,11.63h13.84ZM180.22,286.35h-14.32l17.28,33.33v21.48h13.82v-22.47c0-1.5,12.3-22.98,14.08-26.41.98-1.88,2.11-3.91,2.71-5.94h-13.08l-10.13,22.71-10.36-22.71h0ZM259.22,341.16l-16.04-54.32c-.36-.54-.92-.45-1.46-.51-1.75-.22-15.9-.2-16.59.25l-15.78,54.58h13.82l2.49-11.83,16.82.26,2.91,11.56h13.83Z" fill="#37687f"/>
  <polygon points="160.96 58.73 189.85 173.78 220.71 58.73 264.65 58.73 264.65 202.91 230.58 202.91 230.58 111.07 206.37 202.88 173.05 202.91 146.64 107.12 146.64 202.91 115.54 202.91 115.54 58.73 160.96 58.73" fill="#fefefe"/>
  <path d="M259.22,341.16h-13.82l-2.91-11.56-16.82-.26-2.49,11.83h-13.82l15.78-54.58c.69-.46,14.83-.47,16.59-.25.54.07,1.1-.03,1.46.51l16.04,54.32h-.01ZM228.61,319.43h10.86l-5.19-23.21-5.67,23.21Z" fill="#fefefe"/>
  <path d="M170.84,341.16h-13.82l-3.43-11.63-16.25-.15-3.03,11.78h-13.33l16.03-54.84c5.02.51,10.95-.56,15.85,0,.71.08,1.3.05,1.66.81l16.34,54.02h-.02ZM150.59,319.43l-5.18-23.7-5.68,23.7h10.86Z" fill="#fefefe"/>
  <path d="M180.22,286.35l10.36,22.71,10.13-22.71h13.08c-.59,2.02-1.73,4.06-2.71,5.94-1.79,3.42-14.08,24.91-14.08,26.41v22.47h-13.82v-21.48l-17.28-33.33h14.32Z" fill="#fefefe"/>
  <polygon points="228.61 319.43 234.28 296.22 239.47 319.43 228.61 319.43" fill="#37687f"/>
  <polygon points="150.59 319.43 139.73 319.43 145.41 295.73 150.59 319.43" fill="#37687f"/>
</svg>