<?xml version="1.0" encoding="UTF-8"?>
<svg id="uuid-524daf9b-9ba8-4e00-855f-0c19bfaded07" data-name="Capa 1" xmlns="http://www.w3.org/2000/svg" viewBox="0 0 366.73 324.08">
  <path d="M304.51,322.8c-20.62.28-47.94,1.67-67.85-1.73-18.68-3.19-13.79-34.89-19.85-49.08l-66.3.77c-6.63,12.79-1.25,44.85-19.1,48.02-25.06,4.46-73.23,3.61-99.47,2-5.28-.32-17.41-1.34-21.85-2.71-5.18-1.59-6.78-4.97-10.09-8.73v-8.19c10.37-30.52,17.44-62.26,26.19-93.32,101.29,7.34,201.11,47.42,278.32,112.96h0Z" fill="#01fed0"/>
  <path d="M170.27,168.91c-2.56,12.4-5.91,24.94-6.55,37.65h40.93c-1.16-7.72-3.37-15.28-4.91-22.92,63.15,31.17,119.36,76.3,165.35,129.34-.8,1.96,0,2.86-2.58,4.73-7.8,5.65-41.98,4.83-53.09,5.09-73.9-72.55-173.37-119.58-276.68-130.97,5.6-19.51,10.45-39.38,16.37-58.94,41.84,6.52,82.18,20.02,121.15,36.02h0Z" fill="#00fed0"/>
  <path d="M338.89,203.29c5.62,19.56,11.26,39.23,16.37,58.94-44.7-48.35-95.26-92.11-152.79-124.71-4.28-2.42-9.27-5.9-14.2-6.27-1.37-5.87-2.75-11.98-3.29-18.01-3.96,1.77-3.93,7.77-4.9,11.46-37.1-16.74-74.57-33.75-114.6-42.57,4.14-12.92,7.04-26.38,11.46-39.29,100,30.24,188.37,87.06,261.95,160.44h0Z" fill="#01cda7"/>
  <path d="M324.16,152.54c4.98,13.2,7.5,27.42,11.46,40.93C263.88,122.93,177.75,64.44,80.22,36.3c3.68-10.23,2.39-14.86,9.82-24.56,65.09,24.1,126.21,55.61,181.56,97.58l52.56,43.22Z" fill="#01cda7"/>
  <path d="M356.9,270.41c2.63,10.39,8.88,25.16,9.73,35.47.36,4.31-.28,4-1.55,7.1-45.99-53.04-102.21-98.16-165.35-129.34-3-14.84-6.45-29.47-9.82-44.2,64.39,31.74,117.15,80.4,166.99,130.97h0Z" fill="#01cda7"/>
  <path d="M178.45,132.89c-2.81,11.92-5.71,24.04-8.19,36.02-38.97-16-79.31-29.49-121.15-36.02,4.31-14.23,8.6-28.4,13.1-42.57,40.38,9.11,79.17,24.43,116.24,42.57h0Z" fill="#01cda7"/>
  <path d="M127.7.28c34.6,16.28,68.93,33,101.37,53.35,16.6,10.42,37.28,28.35,54.17,35.06,2.45,2.87-.93,3.46,6.55,6.55,4.42,6.17,5.15,3.21,8.19,4.91,4.35,6.21.49,5.6,9.82,8.19,1.09,1.48.87,5.79,4.91,6.55,2.94,9.56,7.29,19.4,8.19,29.47-8.02-10.36-37.52-32.53-49.28-41.58C218.67,62.06,158.36,28.42,94.98,6.84,103.25,1.81,117.65.88,127.72.29h-.02Z" fill="#01cda7"/>
  <path d="M185,.28c40.65,23.94,79.28,50.99,116.24,80.22,3.09,9.79,6.74,19.58,9.82,29.47-1.1-.4-2.2-1.34-3.27-1.64-3.6-4.86-4.73-5.33-9.82-8.19-3.98-5.68-3.93-3.15-8.19-4.91-2.78-3.89.53-3.73-6.55-6.55-5.87-6.89-16.53-13.86-24.04-19.34C222.28,42.4,181.66,20.51,140.8.28c14.65-.47,29.54-.02,44.2,0h0Z" fill="#01cda7"/>
  <path d="M309.42,322.8c-1.64.04-3.28-.02-4.91,0-77.21-65.54-177.02-105.63-278.32-112.96,1.7-6.03,5.19-13.26,6.55-18.01,103.31,11.39,202.78,58.42,276.68,130.97h0Z" fill="#01cda7"/>
  <path d="M255.4,1.92l27.83,22.92c6.98,18.44,12.04,36.76,18.01,55.66C264.28,51.27,225.65,24.22,185,.28c23.32.04,47.29-1.33,70.4,1.64Z" fill="#00fed0"/>
  <path d="M335.62,193.47c.94,3.21,2.34,6.56,3.27,9.82C265.32,129.91,176.94,73.08,76.94,42.85c.86-2.51,2.62-4.72,3.27-6.55,97.52,28.14,183.66,86.63,255.4,157.17h.01Z" fill="#01fcce"/>
  <path d="M94.96,6.83c63.39,21.58,123.69,55.22,176.64,95.94,11.77,9.05,41.26,31.21,49.28,41.58,2.57,3.32,2.08,5.01,3.27,8.19l-52.56-43.22C216.25,67.35,155.12,35.84,90.03,11.74c2.58-3.37-.32-1.73,4.91-4.91h.02Z" fill="#01fcce"/>
  <path d="M355.27,262.23c.71,2.74.98,5.59,1.64,8.19-49.84-50.57-102.6-99.24-166.99-130.97-.62-2.69-1-5.46-1.64-8.19,4.93.36,9.92,3.84,14.2,6.27,57.53,32.6,108.1,76.35,152.79,124.71h0Z" fill="#01fcce"/>
  <path d="M180.09,124.71c-.65,2.48-1,5.47-1.64,8.19-37.07-18.14-75.86-33.45-116.24-42.57,1-3.15,2.54-5.89,3.27-8.19,40.03,8.82,77.5,25.82,114.6,42.57h.01Z" fill="#01fcce"/>
  <path d="M140.8.28c40.86,20.24,81.48,42.13,118.39,69.06,7.51,5.48,18.17,12.46,24.04,19.34-16.89-6.72-37.56-24.65-54.17-35.06C196.62,33.27,162.29,16.56,127.69.27c4.33-.25,8.75.14,13.1,0h0Z" fill="#01fcce"/>
  <path d="M289.78,95.24c-7.48-3.09-4.1-3.68-6.55-6.55,7.08,2.82,3.77,2.66,6.55,6.55Z" fill="#01fcce"/>
  <path d="M297.96,100.15c-3.04-1.71-3.77,1.26-8.19-4.91,4.26,1.76,4.21-.77,8.19,4.91Z" fill="#01fcce"/>
  <path d="M307.79,108.33c-9.34-2.58-5.47-1.97-9.82-8.19,5.09,2.86,6.23,3.32,9.82,8.19Z" fill="#01fcce"/>
  <path d="M311.06,109.97c.52,1.66,1.14,3.29,1.64,4.91-4.04-.76-3.82-5.07-4.91-6.55,1.07.3,2.18,1.23,3.27,1.64Z" fill="#01fcce"/>
  <path d="M283.23,24.84L255.4,1.92c12.02,1.55,20.17,1.43,26.04,14.09,1.71,3.68,1.07,6.91,1.8,8.83h0Z" fill="#01cda7"/>
</svg>