<?xml version="1.0" encoding="UTF-8"?>
<svg id="uuid-fc4f6544-7bfa-454b-b654-eb91a83e548f" data-name="Capa 1" xmlns="http://www.w3.org/2000/svg" viewBox="0 0 370 369.58">
  <path d="M172.37.33c147.83-8.55,247.2,149.43,171.77,278.33-73.8,126.13-259.38,119.66-324.67-10.88C-39.28,150.33,41.64,7.89,172.38.33h-.01ZM179.57,8.65C40.88,13.56-39.57,169.27,39.61,284.77c72.72,106.09,231.21,100.39,296.77-9.99C407.11,155.7,317.23,3.77,179.57,8.65h0Z" fill="#22769b"/>
  <path d="M179.57,8.65c137.66-4.88,227.53,147.05,156.81,266.13-65.56,110.38-224.05,116.08-296.77,9.99C-39.56,169.27,40.88,13.56,179.57,8.65h0ZM291.06,67.8c-32.63-31.04-79.59-45.49-124.38-40.46-45.88,5.15-89.08,31.6-113.87,70.4,17.9.46,35.64-.59,53.48-1.67,6.75.81,8.23,11.65-1.18,13.26-5.21.89-11.5.69-16.84,1.17l.04,1.34,57.31,169.98,33.82-101.43.28-2.51-24.12-66.84c-4.93-1.89-19.01.17-21.82-4.78-2.48-4.37.11-9.73,5.16-10.21,7.57-.72,19.09,1.46,27.15,1.71,19.83.63,39.57-.59,59.32-1.7,4.83.58,6.7,6.39,4.15,10.27-2.91,4.41-16.66,3.46-21.9,4.15-.78.1-.95-.3-.81.82l57.61,168.85c0-.75.03-1.51.26-2.23,7.68-24,15.99-49.78,22.42-74.05,5.46-20.65,6.97-36.95-1.52-57.16-8.61-20.5-31.63-41.87-18.48-65.42,4.87-8.72,13.85-13.78,23.92-13.49h0ZM324.3,110.5c2.25,22.69-1.46,45.06-9.41,66.26l-50.16,144.96c67.84-39.44,96.24-122.84,67.03-196.24-1.97-4.96-4.36-10.68-7.46-14.99h0ZM40.61,121.04c-1.27-.23-.88.08-1.23.71-1.47,2.65-3.26,8.13-4.32,11.2-25.15,72.76,5.46,152.26,71.67,190,1.01.58,8.32,4.71,8.68,4.34L40.61,121.04h0ZM236.73,335.03l-49.28-135.81-47.1,138.05c31.69,9.01,65.12,7.96,96.39-2.24h-.01Z" fill="#fefefe"/>
  <path d="M291.06,67.8c-10.07-.28-19.05,4.77-23.92,13.49-13.15,23.55,9.87,44.93,18.48,65.42,8.49,20.21,6.99,36.5,1.52,57.16-6.42,24.28-14.74,50.05-22.42,74.05-.23.72-.27,1.48-.26,2.23l-57.61-168.85c-.15-1.12.03-.71.81-.82,5.24-.69,18.99.26,21.9-4.15,2.56-3.88.69-9.69-4.15-10.27-19.76,1.11-39.49,2.33-59.32,1.7-8.06-.26-19.58-2.43-27.15-1.71-5.05.48-7.65,5.84-5.16,10.21,2.81,4.94,16.88,2.88,21.82,4.78l24.12,66.84-.28,2.51-33.82,101.43-57.31-169.98-.04-1.34c5.34-.49,11.63-.28,16.84-1.17,9.41-1.61,7.94-12.45,1.18-13.26-17.84,1.08-35.58,2.13-53.48,1.67,24.79-38.81,67.98-65.25,113.87-70.4,44.8-5.03,91.75,9.43,124.38,40.46h0Z" fill="#22769b"/>
  <path d="M236.73,335.03c-31.27,10.2-64.69,11.25-96.39,2.24l47.1-138.05,49.28,135.81h.01Z" fill="#22769b"/>
  <path d="M40.61,121.04l74.8,206.25c-.36.37-7.67-3.76-8.68-4.34C40.52,285.21,9.91,205.71,35.06,132.95c1.06-3.07,2.84-8.55,4.32-11.2.35-.63-.04-.94,1.23-.71h0Z" fill="#22769b"/>
  <path d="M324.3,110.5c3.1,4.3,5.48,10.03,7.46,14.99,29.21,73.4.81,156.8-67.03,196.24l50.16-144.96c7.95-21.21,11.67-43.58,9.41-66.26h0Z" fill="#22769b"/>
</svg>